<svg width="46" height="27" viewBox="0 0 46 27" fill="none" xmlns="http://www.w3.org/2000/svg">
<path d="M8.765 26.385C7.575 26.385 6.385 26.2683 5.195 26.035C4.005 25.8017 2.97833 25.475 2.115 25.055C1.36833 24.705 0.843333 24.2733 0.54 23.76C0.26 23.2467 0.143333 22.7217 0.19 22.185C0.236667 21.6483 0.423333 21.17 0.75 20.75C1.1 20.33 1.54333 20.05 2.08 19.91C2.64 19.7467 3.27 19.8167 3.97 20.12C4.83333 20.4933 5.62667 20.75 6.35 20.89C7.07333 21.03 7.79667 21.1 8.52 21.1C9.36 21.1 10.06 21.0067 10.62 20.82C11.18 20.6333 11.6 20.3533 11.88 19.98C12.16 19.5833 12.3 19.0933 12.3 18.51C12.3 17.6933 12.0083 17.0983 11.425 16.725C10.865 16.3283 10.0367 16.13 8.94 16.13H7.05C6.16333 16.13 5.48667 15.9083 5.02 15.465C4.55333 15.0217 4.32 14.3917 4.32 13.575C4.32 12.7583 4.55333 12.1283 5.02 11.685C5.48667 11.2417 6.16333 11.02 7.05 11.02H8.31C8.98667 11.02 9.55833 10.9267 10.025 10.74C10.515 10.5533 10.8883 10.285 11.145 9.935C11.4017 9.56167 11.53 9.10667 11.53 8.57C11.53 7.8 11.25 7.21667 10.69 6.82C10.1533 6.42333 9.34833 6.225 8.275 6.225C7.62167 6.225 6.95667 6.295 6.28 6.435C5.60333 6.575 4.88 6.82 4.11 7.17C3.50333 7.42667 2.94333 7.485 2.43 7.345C1.94 7.205 1.53167 6.93667 1.205 6.54C0.901667 6.12 0.715 5.665 0.645 5.175C0.575 4.66167 0.656667 4.16 0.89 3.67C1.12333 3.18 1.56667 2.77167 2.22 2.445C3.2 1.955 4.26167 1.58167 5.405 1.325C6.57167 1.06833 7.73833 0.939999 8.905 0.939999C10.7483 0.939999 12.3233 1.20833 13.63 1.745C14.9367 2.28167 15.9283 3.06333 16.605 4.09C17.305 5.09333 17.655 6.30667 17.655 7.73C17.655 8.66333 17.48 9.52667 17.13 10.32C16.78 11.1133 16.2667 11.7783 15.59 12.315C14.9133 12.8283 14.12 13.2017 13.21 13.435V12.945C14.8433 13.2017 16.115 13.89 17.025 15.01C17.9583 16.1067 18.425 17.4833 18.425 19.14C18.425 20.6333 18.04 21.9283 17.27 23.025C16.5 24.1217 15.3917 24.9617 13.945 25.545C12.4983 26.105 10.7717 26.385 8.765 26.385ZM25.5863 26C24.4897 26 23.6497 25.72 23.0663 25.16C22.5063 24.5767 22.2263 23.7483 22.2263 22.675V4.65C22.2263 3.57667 22.5063 2.76 23.0663 2.2C23.6497 1.61667 24.4897 1.325 25.5863 1.325H32.4463C36.7397 1.325 40.053 2.39833 42.3863 4.545C44.743 6.69167 45.9213 9.725 45.9213 13.645C45.9213 15.605 45.618 17.355 45.0113 18.895C44.4047 20.4117 43.5297 21.7067 42.3863 22.78C41.243 23.83 39.8313 24.635 38.1513 25.195C36.4947 25.7317 34.593 26 32.4463 26H25.5863ZM28.6663 20.785H32.0263C33.263 20.785 34.3247 20.6333 35.2113 20.33C36.1213 20.0267 36.868 19.5833 37.4513 19C38.058 18.4167 38.5013 17.6817 38.7813 16.795C39.0847 15.9083 39.2363 14.8583 39.2363 13.645C39.2363 11.2183 38.6413 9.43333 37.4513 8.29C36.2613 7.12333 34.453 6.54 32.0263 6.54H28.6663V20.785Z" fill="#918CAB" fill-opacity="0.52"/>
</svg>
