<svg width="721" height="689" viewBox="0 0 721 689" fill="none" xmlns="http://www.w3.org/2000/svg">
<path fill-rule="evenodd" clip-rule="evenodd" d="M385.76 15.5733C380.671 6.24516 370.9 0.442627 360.281 0.442627C349.662 0.442627 339.885 6.24476 334.803 15.5733L232.907 202.427L23.7333 241.588C13.2907 243.546 4.75466 251.046 1.47333 261.145C-1.80787 271.249 0.686868 282.339 7.98892 290.052L154.202 444.692L126.812 655.759C125.447 666.29 129.942 676.728 138.536 682.972C147.129 689.212 158.448 690.264 168.041 685.706L360.308 594.43L552.574 685.706C562.168 690.264 573.486 689.212 582.08 682.972C590.673 676.727 595.168 666.289 593.804 655.759L566.413 444.692L712.626 290.052C719.928 282.333 722.423 271.245 719.142 261.145C715.861 251.041 707.324 243.541 696.882 241.588L487.709 202.427L385.813 15.5733H385.76ZM360.281 90.084L443.297 242.311C447.469 249.967 454.865 255.337 463.433 256.941L633.847 288.848L514.737 414.832C508.748 421.165 505.92 429.859 507.045 438.504L529.357 610.451L372.73 536.087C364.85 532.347 355.714 532.347 347.834 536.087L191.207 610.451L213.519 438.504C214.639 429.863 211.816 421.171 205.827 414.832L86.7173 288.848L257.131 256.941C265.698 255.337 273.095 249.967 277.267 242.311L360.283 90.084H360.281Z" fill="white"/>
</svg>
