<svg width="617" height="702" viewBox="0 0 617 702" fill="none" xmlns="http://www.w3.org/2000/svg">
<path d="M308.893 701.107C302.669 701.107 299.56 701.107 293.336 697.997C280.893 691.773 0.895996 539.331 0.895996 299.771C7.1148 128.664 147.109 -5.10937 318.229 1.10397C480.003 7.32797 610.669 137.997 616.896 299.771C616.896 536.211 336.896 688.664 324.456 697.997C318.232 697.997 312.008 697.997 308.899 701.107H308.893ZM308.893 54C172 54 63.12 162.891 63.12 299.773C63.12 470.88 252.893 598.44 308.893 632.667C364.893 598.443 554.667 470.893 554.667 299.773C554.667 162.893 442.667 54 308.893 54V54ZM308.893 424.227C231.117 424.227 165.787 362.003 165.787 281.12C165.787 203.344 228.011 138.013 308.893 138.013C386.669 138.013 452 200.237 452 281.12C448.891 358.896 386.667 424.227 308.893 424.227ZM308.893 200.227C265.336 200.227 228.003 234.451 228.003 281.117C228.003 327.784 262.227 362.008 308.893 362.008C355.56 362.008 389.784 327.784 389.784 281.117C386.669 237.56 352.445 200.227 308.893 200.227Z" fill="white"/>
</svg>
