<svg width="48" height="26" viewBox="0 0 48 26" fill="none" xmlns="http://www.w3.org/2000/svg">
<path d="M11.16 25.385C9.36333 25.385 7.77667 25.1633 6.4 24.72C5.02333 24.2533 3.85667 23.565 2.9 22.655C1.96667 21.745 1.255 20.6133 0.765 19.26C0.298333 17.8833 0.0650001 16.2967 0.0650001 14.5V3.265C0.0650001 2.19166 0.345 1.38666 0.905 0.849998C1.465 0.289998 2.25833 0.00999838 3.285 0.00999838C4.335 0.00999838 5.12833 0.289998 5.665 0.849998C6.225 1.38666 6.505 2.19166 6.505 3.265V14.57C6.505 16.3667 6.90167 17.72 7.695 18.63C8.48833 19.54 9.64333 19.995 11.16 19.995C12.6533 19.995 13.7967 19.54 14.59 18.63C15.3833 17.72 15.78 16.3667 15.78 14.57V3.265C15.78 2.19166 16.0483 1.38666 16.585 0.849998C17.145 0.289998 17.9383 0.00999838 18.965 0.00999838C19.9917 0.00999838 20.7733 0.289998 21.31 0.849998C21.8467 1.38666 22.115 2.19166 22.115 3.265V14.5C22.115 16.9033 21.695 18.9217 20.855 20.555C20.0383 22.165 18.8133 23.3783 17.18 24.195C15.5467 24.9883 13.54 25.385 11.16 25.385ZM28.4916 25.315C27.6749 25.315 26.9982 25.0933 26.4616 24.65C25.9249 24.2067 25.6099 23.6467 25.5166 22.97C25.4466 22.2933 25.6799 21.605 26.2166 20.905L33.6366 11.105V14.01L26.4266 4.455C25.8899 3.73167 25.6566 3.03167 25.7266 2.355C25.8199 1.67833 26.1349 1.11833 26.6716 0.674998C27.2082 0.231665 27.8849 0.00999838 28.7016 0.00999838C29.3782 0.00999838 29.9732 0.173332 30.4866 0.499998C30.9999 0.826665 31.5132 1.35167 32.0266 2.075L37.2416 9.32H35.1416L40.3916 2.075C40.9049 1.32833 41.4182 0.803332 41.9316 0.499998C42.4449 0.173332 43.0399 0.00999838 43.7166 0.00999838C44.5566 0.00999838 45.2449 0.231665 45.7816 0.674998C46.3182 1.095 46.6216 1.64333 46.6916 2.32C46.7849 2.99667 46.5516 3.70833 45.9916 4.455L38.7466 14.01V11.105L46.1666 20.905C46.7266 21.605 46.9599 22.2933 46.8666 22.97C46.7966 23.6467 46.4932 24.2067 45.9566 24.65C45.4199 25.0933 44.7316 25.315 43.8916 25.315C43.2382 25.315 42.6549 25.1633 42.1416 24.86C41.6282 24.5333 41.1032 23.9967 40.5666 23.25L35.1766 15.795H37.2066L31.8516 23.25C31.3149 23.9967 30.7899 24.5333 30.2766 24.86C29.7632 25.1633 29.1682 25.315 28.4916 25.315Z" fill="#918CAB" fill-opacity="0.52"/>
</svg>
