<svg width="259" height="270" viewBox="0 0 259 270" fill="none" xmlns="http://www.w3.org/2000/svg">
<path d="M37.2538 49.9063H75.4548V33.2538C75.4548 30.3517 77.8049 28 80.7055 28H222.066C224.968 28 227.32 30.3501 227.32 33.2538V191.751C227.32 194.65 224.97 197.005 222.066 197.005H205.883V235.876C205.883 238.778 203.533 241.129 200.629 241.129H59.2685C56.3695 241.129 54.0179 238.779 54.0179 235.876V218.91H37.2538C34.3548 218.91 32 216.559 32 213.659V55.1616C32 52.2626 34.3531 49.9079 37.2538 49.9079V49.9063ZM85.9592 49.9063H178.614C181.568 49.9369 183.843 52.2472 183.868 55.1601V72.1261H200.629C203.531 72.1261 205.883 74.4793 205.883 77.3799V186.498H216.817V38.5071H85.9584V49.909L85.9592 49.9063ZM173.365 60.4122H42.5106V208.404H173.365V60.4122ZM183.871 82.6305V213.657C183.841 216.488 181.672 218.885 178.617 218.908L64.5238 218.911V230.623H195.382V82.632L183.871 82.6305Z" fill="white"/>
<path d="M60 160L79 131M60 160L79 131" stroke="white" stroke-width="11" stroke-linecap="round"/>
<path d="M93.3132 147.991L79.5961 130.604M93.3132 147.991L79.5961 130.604" stroke="white" stroke-width="11" stroke-linecap="round"/>
<path d="M93.3132 147.991L128.586 94M93.3132 147.991L128.586 94" stroke="white" stroke-width="11" stroke-linecap="round"/>
<path d="M157 137L128.586 94M157 137L128.586 94" stroke="white" stroke-width="11" stroke-linecap="round"/>
<path d="M60 191L60 160.802" stroke="white" stroke-width="11" stroke-linecap="round"/>
<path d="M60 191H157M60 191H157" stroke="white" stroke-width="11" stroke-linecap="round"/>
<path d="M157 137.009V191M157 137.009V191" stroke="white" stroke-width="11" stroke-linecap="round"/>
<path d="M89.5 92.4991C89.5 99.6798 83.6798 105.5 76.4991 105.5C69.3205 105.5 63.5 99.68 63.5 92.4991C63.5 85.3203 69.3203 79.5 76.4991 79.5C83.68 79.5 89.5 85.3205 89.5 92.4991Z" stroke="white" stroke-width="7"/>
</svg>
