<svg width="259" height="270" viewBox="0 0 259 270" fill="#fff" xmlns="http://www.w3.org/2000/svg">
<path d="M37.2538 49.9063H75.4548V33.2538C75.4548 30.3517 77.8049 28 80.7055 28H222.066C224.968 28 227.32 30.3501 227.32 33.2538V191.751C227.32 194.65 224.97 197.005 222.066 197.005H205.883V235.876C205.883 238.778 203.533 241.129 200.629 241.129H59.2685C56.3695 241.129 54.0179 238.779 54.0179 235.876V218.91H37.2538C34.3548 218.91 32 216.559 32 213.659V55.1616C32 52.2626 34.3532 49.9079 37.2538 49.9079V49.9063ZM85.9592 49.9063H178.614C181.568 49.9369 183.843 52.2472 183.868 55.1601V72.1261H200.629C203.531 72.1261 205.883 74.4793 205.883 77.3799V186.498H216.817V38.5071H85.9584V49.909L85.9592 49.9063ZM173.365 60.4122H42.5106V208.404H173.365V60.4122ZM183.871 82.6305V213.657C183.841 216.488 181.672 218.885 178.617 218.908L64.5238 218.911V230.623H195.382V82.632L183.871 82.6305ZM69.0143 125.394C62.0985 125.394 62.0985 114.891 69.0143 114.891H146.862C153.777 114.891 153.777 125.394 146.862 125.394H69.0143ZM69.0143 182.453C62.0985 182.453 62.0985 171.947 69.0143 171.947H146.862C153.777 171.947 153.777 182.453 146.862 182.453H69.0143ZM69.0143 153.921C62.0985 153.921 62.0985 143.418 69.0143 143.418H107.089C114.004 143.418 114.004 153.921 107.089 153.921H69.0143ZM69.0143 96.8625C62.0985 96.8625 62.0985 86.3565 69.0143 86.3565H107.089C114.004 86.3565 114.004 96.8625 107.089 96.8625H69.0143Z" fill="#fff"/>
</svg>
