<svg width="259" height="270" viewBox="0 0 259 270" fill="none" xmlns="http://www.w3.org/2000/svg">
<path d="M37.2452 49.893H75.3837V33.2506C75.3837 30.3502 77.7299 28 80.6257 28H221.755C224.652 28 227 30.3487 227 33.2506V191.652C227 194.549 224.654 196.902 221.755 196.902H205.598V235.749C205.598 238.65 203.252 241 200.353 241H59.2238C56.3296 241 53.9818 238.651 53.9818 235.749V218.794H37.2452C34.3509 218.794 32 216.445 32 213.546V55.1451C32 52.2479 34.3493 49.8946 37.2452 49.8946V49.893ZM85.8709 49.893H178.374C181.324 49.9236 183.595 52.2325 183.619 55.1436V72.0994H200.353C203.25 72.0994 205.598 74.4511 205.598 77.3499V186.402H216.514V38.5007H85.8701V49.8957L85.8709 49.893ZM173.134 60.3926H42.4934V208.294H173.134V60.3926ZM183.623 82.5974V213.545C183.592 216.373 181.427 218.769 178.377 218.792L64.4706 218.795V230.5H195.115V82.5989L183.623 82.5974Z" fill="white"/>
<path d="M68.9395 126.491V94.9594M68.9395 126.491V94.9594" stroke="white" stroke-width="11" stroke-linecap="round"/>
<path d="M146.812 126.491V94.9594M146.812 126.491V94.9594" stroke="white" stroke-width="11" stroke-linecap="round"/>
<path d="M68.9395 127.343H146.812M68.9395 127.343H146.812" stroke="white" stroke-width="11" stroke-linecap="round"/>
<path d="M68.9395 94.9594H146.812M68.9395 94.9594H146.812" stroke="white" stroke-width="11" stroke-linecap="round"/>
<path d="M68.9395 177.459V145.928M68.9395 177.459V145.928" stroke="white" stroke-width="11" stroke-linecap="round"/>
<path d="M146.812 177.459V145.928M146.812 177.459V145.928" stroke="white" stroke-width="11" stroke-linecap="round"/>
<path d="M68.9395 178.312H146.812M68.9395 178.312H146.812" stroke="white" stroke-width="11" stroke-linecap="round"/>
<path d="M68.9395 145.928H146.812M68.9395 145.928H146.812" stroke="white" stroke-width="11" stroke-linecap="round"/>
</svg>
