<svg width="464" height="464" viewBox="0 0 464 464" fill="none" xmlns="http://www.w3.org/2000/svg">
<path d="M377.347 0.86665C354.597 0.79894 332.763 9.83545 316.716 25.9547L161.263 181.488C134.544 208.035 119.565 244.176 119.675 281.843V344.337H182.169C219.809 344.426 255.919 329.447 282.445 302.749L438.059 147.296C454.132 131.203 463.157 109.384 463.152 86.6346C463.142 63.8853 454.095 42.072 438.007 25.9893C421.919 9.91064 400.1 0.874645 377.356 0.874645L377.347 0.86665ZM406.316 115.555L250.863 271.088C232.685 289.369 207.951 299.615 182.169 299.536H164.476V281.843C164.419 256.088 174.658 231.379 192.924 213.223L348.457 57.6893C358.91 47.8872 373.723 44.2573 387.525 48.1164C401.328 51.9757 412.113 62.7564 415.968 76.559C419.827 90.3617 416.197 105.179 406.395 115.632L406.316 115.555Z" fill="white"/>
<path d="M82.3333 463.8H351.133C372.915 463.8 393.805 455.144 409.207 439.743C424.613 424.336 433.264 403.445 433.264 381.664V262.195H388.467V381.664C388.467 391.565 384.529 401.06 377.529 408.065C370.529 415.065 361.035 418.998 351.133 418.998H82.3332C72.4321 418.998 62.9372 415.065 55.9319 408.065C48.9319 401.06 44.9996 391.565 44.9996 381.664V112.864C44.9996 102.963 48.9319 93.468 55.9319 86.468C62.9371 79.468 72.4319 75.5305 82.3332 75.5305H201.803V30.7332H82.3332C60.5519 30.7332 39.6612 39.3842 24.2545 54.7905C8.8532 70.1918 0.197205 91.0825 0.197205 112.864V381.664C0.197205 403.445 8.85347 424.336 24.2545 439.742C39.6612 455.144 60.5519 463.8 82.3332 463.8L82.3333 463.8Z" fill="white"/>
</svg>
