<svg width="421" height="537" viewBox="0 0 421 537" fill="none" xmlns="http://www.w3.org/2000/svg">
<path d="M338.772 536.665C348.053 536.665 356.96 532.978 363.521 526.415C370.083 519.853 373.771 510.946 373.771 501.666V489.999H385.438C394.719 489.999 403.626 486.312 410.187 479.749C416.749 473.187 420.437 464.28 420.437 455V105C420.437 104.745 420.307 104.547 420.297 104.286C420.229 103.234 420.015 102.193 419.666 101.198C419.557 100.823 419.432 100.458 419.281 100.099C418.734 98.8906 417.989 97.7812 417.078 96.8229L417.01 96.7396L323.677 3.40621L323.604 3.35933C322.646 2.44788 321.542 1.70827 320.338 1.16667C319.958 1.01041 319.568 0.875003 319.172 0.760417C318.187 0.41667 317.161 0.213535 316.125 0.151042C315.917 0.130208 315.693 0 315.437 0H82.104C72.8228 0 63.916 3.68747 57.3547 10.25C50.7934 16.8125 47.1047 25.7193 47.1047 34.9993V46.666H35.438C26.1568 46.666 17.25 50.3535 10.6887 56.916C4.12736 63.4785 0.43869 72.3853 0.43869 81.6653V501.665C0.43869 510.947 4.12616 519.853 10.6887 526.415C17.2512 532.976 26.158 536.665 35.438 536.665L338.772 536.665ZM70.4387 34.9986C70.4387 28.5559 75.6627 23.3319 82.1053 23.3319H303.772V81.6653C303.772 90.9465 307.459 99.8533 314.022 106.415C320.585 112.976 329.491 116.665 338.771 116.665H397.105V454.998C397.105 458.092 395.876 461.061 393.688 463.248C391.501 465.435 388.532 466.665 385.438 466.665H82.1047C75.662 466.665 70.438 461.441 70.438 454.998L70.4387 34.9986ZM23.772 501.665V81.6653C23.772 75.2226 28.996 69.9986 35.4387 69.9986H47.1053V454.999C47.1053 464.28 50.7928 473.187 57.3553 479.748C63.9179 486.309 72.8247 489.998 82.1047 489.998H350.438V501.665C350.438 504.758 349.209 507.727 347.021 509.915C344.834 512.102 341.865 513.331 338.771 513.331H35.438C28.9953 513.331 23.7713 508.107 23.7713 501.665L23.772 501.665Z" fill="white"/>
</svg>
