<svg width="658" height="654" viewBox="0 0 658 654" fill="none" xmlns="http://www.w3.org/2000/svg">
<path d="M572.031 242.532L353.057 10.2917C346.578 3.7084 337.729 0 328.495 0C319.26 0 310.412 3.70827 303.932 10.2917L8.06535 324.145C4.12788 328.192 1.48721 333.312 0.466408 338.858C-0.549218 344.411 0.101827 350.134 2.34135 355.312C4.97681 361.077 9.24241 365.942 14.6069 369.317C19.9767 372.687 26.2111 374.416 32.5443 374.286H82.9456V623.219C83.2685 631.511 86.8675 639.334 92.9456 644.979C99.029 650.625 107.096 653.63 115.388 653.339H220.415C228.712 653.635 236.779 650.63 242.863 644.984C248.947 639.339 252.545 631.511 252.868 623.219V472.059C253.457 463.163 257.535 454.862 264.212 448.955C270.889 443.049 279.628 440.018 288.529 440.523H368.425H368.42C377.342 440.018 386.108 443.054 392.8 448.976C399.493 454.898 403.581 463.227 404.17 472.143V623.209C404.493 631.501 408.086 639.324 414.17 644.969C420.248 650.615 428.32 653.62 436.612 653.329H541.618C549.909 653.625 557.982 650.62 564.066 644.974C570.15 639.329 573.743 631.501 574.066 623.209V374.276H624.368C630.723 374.406 636.973 372.682 642.358 369.307C647.738 365.932 652.014 361.057 654.665 355.28C656.899 350.103 657.551 344.379 656.535 338.832C655.514 333.285 652.868 328.166 648.936 324.124L572.031 242.532ZM640.957 349.365H640.952C637.963 355.751 631.416 359.693 624.368 359.355H566.603C562.478 359.355 559.134 362.698 559.134 366.818V623.218C558.436 632.218 550.629 638.989 541.618 638.406H436.591C427.581 638.99 419.779 632.219 419.081 623.218V472.152C418.497 459.271 412.836 447.141 403.341 438.422C393.841 429.698 381.283 425.089 368.398 425.594H288.502C275.643 425.089 263.101 429.688 253.622 438.396C244.143 447.105 238.491 459.208 237.909 472.068V623.228C237.211 632.228 229.403 638.999 220.393 638.416H115.387C106.377 639 98.5753 632.229 97.8767 623.228V366.828C97.8767 364.849 97.0902 362.953 95.6944 361.552C94.2933 360.151 92.3923 359.365 90.4132 359.365H32.5439C25.5335 359.693 19.0172 355.755 16.0545 349.396C13.7993 344.281 14.9452 338.302 18.9348 334.385L314.788 20.5453C318.528 17.1027 323.424 15.1912 328.501 15.1912C333.585 15.1912 338.481 17.1027 342.215 20.5453L638.068 334.372V334.377C642.053 338.289 643.204 344.263 640.954 349.377L640.957 349.365Z" fill="white"/>
</svg>
