<svg width="588" height="621" viewBox="0 0 588 621" fill="none" xmlns="http://www.w3.org/2000/svg">
<path d="M442.77 121.269C421.864 121.269 400.958 128.738 382.292 142.176C367.36 125.004 350.932 112.312 333.01 104.097C342.719 78.7118 347.198 71.2425 348.693 69.0038C352.427 68.259 355.412 65.2694 356.907 60.7902C359.891 47.3529 341.224 13.0035 321.813 3.29554C310.615 -2.67846 299.412 -0.438859 291.199 9.26954C285.225 15.9883 277.011 33.1655 273.277 98.8682C249.381 104.842 226.985 119.03 208.319 142.175C189.652 128.738 168.745 121.268 147.84 121.268C66.4547 121.268 0 226.55 0 355.722C0 484.894 65.708 590.175 146.347 590.175C153.815 590.175 161.279 589.43 168.748 587.19C205.336 608.841 247.893 620.789 291.945 620.789C336.748 620.789 379.305 608.841 415.893 586.44C424.107 588.679 433.065 590.174 441.279 590.174C521.919 590.174 587.625 484.893 587.625 355.721C587.62 226.549 523.407 121.268 442.772 121.268L442.77 121.269ZM301.65 18.9771C305.385 14.4979 309.119 13.7479 313.598 15.9927C327.036 21.9667 339.734 45.8567 341.973 55.5661C336.744 57.8057 330.775 67.5139 318.828 98.8727C306.88 95.1383 295.682 95.1383 287.468 95.8883C291.197 39.883 297.921 23.4563 301.65 18.9763L301.65 18.9771ZM14.9304 355.724C14.9304 234.765 73.9144 136.204 146.342 136.204C164.264 136.204 182.181 142.178 198.608 154.125C180.686 188.474 93.3264 367.672 160.529 573.752C156.05 574.497 150.821 575.247 146.341 575.247C74.6637 575.247 14.9291 476.689 14.9291 355.727L14.9304 355.724ZM292.69 605.857C250.878 605.857 211.305 594.659 176.956 574.497C103.034 354.977 209.81 165.324 215.034 156.364C234.446 131.724 257.597 116.79 281.488 112.312L287.462 111.567C293.436 110.822 303.888 110.072 314.342 113.062L321.811 115.301C341.223 122.02 359.889 136.208 375.571 156.369L380.05 162.343C398.716 198.182 480.852 371.41 415.888 570.023L412.904 571.518C377.065 593.909 335.253 605.857 292.691 605.857L292.69 605.857ZM442.77 575.242C438.291 575.242 433.812 574.498 430.078 573.748C498.026 366.174 409.171 185.481 391.999 153.374C408.426 142.176 425.598 136.202 442.77 136.202C515.196 136.202 574.182 234.765 574.182 355.722C574.187 476.686 515.198 575.242 442.77 575.242L442.77 575.242Z" fill="white"/>
</svg>
