<svg width="39" height="38" viewBox="0 0 39 38" fill="none" xmlns="http://www.w3.org/2000/svg">
<path d="M36.346 9.45743C34.2624 5.60826 30.6183 2.62405 26.0855 1.05466C21.7875 -0.440423 12.716 -1.26078 6.00147 5.11486C0.633443 10.2035 -1.38477 18.202 0.975261 25.0205C1.47164 26.4443 4.34588 33.6908 12.1126 36.2559C14.0119 36.8831 15.825 37.1179 17.4746 37.1179C19.5107 37.1179 21.2881 36.7612 22.6495 36.36C24.0673 35.9409 24.8728 34.4517 24.4537 33.0369C24.0316 31.6221 22.5692 30.8106 21.1276 31.2327C19.4037 31.741 16.7286 32.1482 13.789 31.1792C8.4031 29.4018 6.37895 24.2715 6.02821 23.2669C4.34588 18.4041 5.81421 12.6705 9.68121 8.99969C15.7656 3.22743 24.2486 6.08086 24.3318 6.11356C26.6443 6.91312 29.789 8.58654 31.6378 12.0017C32.2144 13.0777 33.4985 15.9371 32.8951 19.2394C32.7197 20.1727 32.4849 21.4567 31.513 22.5089C30.5945 23.5047 29.1321 24.4142 28.5347 24.1407C26.7126 23.3025 28.0651 17.1885 28.0888 17.0993C28.3504 16.0619 28.719 14.9027 29.1856 13.6514C29.7058 12.2693 29.0013 10.7266 27.6192 10.2094C26.4481 9.76952 25.1908 10.2451 24.5131 11.2379C22.7981 9.98056 20.765 9.24343 18.6666 9.24343C15.6586 9.28801 12.6833 10.5958 11.0663 12.8102C8.99163 15.4437 8.51605 19.3464 9.82388 22.9904C10.9474 26.1144 13.2123 28.3228 15.825 28.8875C16.3452 29.0124 16.8832 29.0718 17.439 29.0718C19.5048 29.0718 21.7489 28.2307 23.77 26.7415C24.4418 27.7075 25.2711 28.5249 26.3025 28.9975C29.6642 30.5491 33.2369 28.5338 35.4483 26.1292C37.4695 23.9416 37.9154 21.5102 38.1561 20.2024C39.0329 15.411 37.3982 11.4162 36.346 9.45743ZM17.011 23.6711C16.1817 23.4928 15.3375 22.5149 14.856 21.1833C14.1843 19.3196 14.3478 17.2836 15.3227 16.0441C15.8339 15.3456 17.0377 14.5966 18.5298 14.5966C20.123 14.4747 21.7013 15.5091 22.6822 17.0042C22.4206 18.3536 22.2898 19.6109 22.2809 20.7731C20.5332 22.8448 18.2623 23.9862 17.011 23.6711Z" fill="#C092F9"/>
</svg>
