<svg width="39" height="36" viewBox="0 0 39 36" fill="none" xmlns="http://www.w3.org/2000/svg">
<path d="M5.58 35.423C4.264 35.423 3.24567 35.0313 2.525 34.248C1.80433 33.4647 1.444 32.3367 1.444 30.864V16.012C1.444 14.5393 1.80433 13.4113 2.525 12.628C3.24567 11.8447 4.264 11.453 5.58 11.453C6.92733 11.453 7.96133 11.8447 8.682 12.628C9.434 13.4113 9.81 14.5393 9.81 16.012V30.864C9.81 32.3367 9.44967 33.4647 8.729 34.248C8.00833 35.0313 6.95867 35.423 5.58 35.423ZM5.58 8.116C4.10733 8.116 2.96367 7.77133 2.149 7.082C1.36567 6.39266 0.974 5.39 0.974 4.074C0.974 2.78933 1.36567 1.80233 2.149 1.113C2.96367 0.423665 4.10733 0.0789986 5.58 0.0789986C7.11533 0.0789986 8.27467 0.423665 9.058 1.113C9.84133 1.80233 10.233 2.78933 10.233 4.074C10.233 5.39 9.84133 6.39266 9.058 7.082C8.27467 7.77133 7.11533 8.116 5.58 8.116ZM18.7988 35.423C17.4828 35.423 16.4644 35.0627 15.7438 34.342C15.0231 33.6213 14.6628 32.5717 14.6628 31.193V15.636C14.6628 14.2887 15.0074 13.2547 15.6968 12.534C16.4174 11.8133 17.4358 11.453 18.7518 11.453C20.0678 11.453 21.0704 11.8133 21.7598 12.534C22.4491 13.2547 22.7938 14.2887 22.7938 15.636V17.845L22.2768 15.918C23.0288 14.4453 24.0941 13.3173 25.4728 12.534C26.8828 11.7507 28.4808 11.359 30.2668 11.359C32.1154 11.359 33.6351 11.7193 34.8258 12.44C36.0164 13.1293 36.9094 14.226 37.5048 15.73C38.1001 17.2027 38.3978 19.067 38.3978 21.323V31.193C38.3978 32.5717 38.0374 33.6213 37.3168 34.342C36.5961 35.0627 35.5621 35.423 34.2148 35.423C32.8674 35.423 31.8334 35.0627 31.1128 34.342C30.3921 33.6213 30.0318 32.5717 30.0318 31.193V21.652C30.0318 20.242 29.7811 19.2393 29.2798 18.644C28.8098 18.0487 28.1048 17.751 27.1648 17.751C25.9114 17.751 24.9088 18.1583 24.1568 18.973C23.4048 19.7563 23.0288 20.8217 23.0288 22.169V31.193C23.0288 34.013 21.6188 35.423 18.7988 35.423Z" fill="#C092F9"/>
</svg>
