<?xml version="1.0" encoding="UTF-8"?>
<svg id="Layer_1" data-name="Layer 1" xmlns="http://www.w3.org/2000/svg" viewBox="0 0 757 757">
  <path d="m378.5,0C169.46,0,0,169.46,0,378.5s169.46,378.5,378.5,378.5,378.5-169.46,378.5-378.5S587.54,0,378.5,0Zm-116.33,585.38h-89.7v-310.82h89.7v310.82Zm-44.74-356.28c-30.09,0-51.92-20.13-51.92-48.14s21.83-48.14,51.92-48.14,51.92,19.91,51.92,48.14-21.83,48.14-51.92,48.14Zm202.57,60.9c25-27,61.06-32.45,104-27,63,8,86,51,89.91,129.42v192.96h-89.7v-181.16c0-44.73-17.21-55.21-37.6-58.72-22.21-3.82-41.61,6.51-56.04,30.2v209.68h-89.7v-310.82l79.12.44"/>
</svg>